<svg width="600" height="1204.1633" xmlns="http://www.w3.org/2000/svg">
 <defs>
  <clipPath id="clipPath3783">
   <path id="path3785" d="m-31.390625,202.283669l147,0l0,-300l-147,0l0,300z"/>
  </clipPath>
 </defs>
 <metadata id="metadata3575">image/svg+xml</metadata>
 <g>
  <title>background</title>
  <rect fill="none" id="canvas_background" height="402" width="582" y="-1" x="-1"/>
 </g>
 <g>
  <title>Layer 1</title>
  <g id="layer1">
   <g id="g3777" transform="matrix(4.0816327,0,0,-4.0816327,128.125,815.48356) ">
    <g id="g3779">
     <g id="g3781" clip-path="url(#clipPath3783)">
      <g id="g3787">
       <path fill="#9d1818" fill-rule="nonzero" id="path3789" d="m114.067368,86.543465c-1.245,32.734 -4.061,45.164 -5.927,45.164c-1.894,0 -2.49,-18.131 -4.979,-34.153c-2.49,-15.985 -6.874,-34.113 -6.874,-34.113l-11.204,4.268c0,0 -3.141,23.131 -4.385,50.851c-1.216,27.721 -2.164,51.931 -5.63,51.931c-3.382,0.029 -4.031,-22.762 -5.276,-52.296c-1.246,-29.517 -5.601,-45.865 -5.601,-45.865l-10.283,1.433c0,0 -4.98,25.602 -6.848,103.807c-0.433,18.509 -4.951,22.223 -4.951,22.223c0,0 -4.52,-3.714 -4.953,-22.223c-1.866,-78.205 -6.874,-103.807 -6.874,-103.807l-10.257,-1.433c0,0 -4.382,16.348 -5.627,45.865c-1.245,29.534 -1.869,52.325 -5.276,52.296c-3.438,0 -4.386,-24.21 -5.659,-51.931c-1.216,-27.72 -4.33,-50.851 -4.33,-50.851l-11.204,-4.268c0,0 -4.382,18.128 -6.872,34.113c-2.489,16.022 -3.113,34.153 -4.979,34.153c-1.868,0 -4.681,-12.43 -5.927,-45.164c-1.245,-32.693 -1.542,-39.084 -1.542,-39.084c0,0 36.777,-15.67 51.093,-56.223c14.343,-40.529 17.969,-75.72 18.077,-79.627c0.188,-6.064 4.33,-6.836 4.33,-6.836c0,0 3.6,0.772 4.33,6.836c0.459,3.879 3.734,39.098 18.075,79.627c14.318,40.553 51.095,56.223 51.095,56.223c0,0 -0.299,6.391 -1.542,39.084"/>
      </g>
     </g>
    </g>
   </g>
  </g>
 </g>
</svg>